<svg xmlns="http://www.w3.org/2000/svg" viewBox="0 0 240 64" fill="none">
  <defs>
    <linearGradient id="lg" x1="0%" y1="0%" x2="100%" y2="100%">
      <stop offset="0%" stop-color="#6366f1"/>
      <stop offset="50%" stop-color="#8b5cf6"/>
      <stop offset="100%" stop-color="#f97316"/>
    </linearGradient>
  </defs>
  <rect x="8" y="12" width="40" height="40" rx="10" fill="url(#lg)"/>
  <path d="M18 30h20v3H18zm0-6h20a3 3 0 013 3v1H15v-1a3 3 0 013-3zm-3 13h26v11a3 3 0 01-3 3H18a3 3 0 01-3-3V37zm10 3v5h6v-5h-6z" fill="white"/>
  <text x="60" y="36" font-family="Inter, system-ui, sans-serif" font-size="22" font-weight="800" fill="currentColor">Rojgar</text>
  <text x="138" y="36" font-family="Inter, system-ui, sans-serif" font-size="22" font-weight="800" fill="url(#lg)">Find</text>
  <text x="60" y="50" font-family="Inter, system-ui, sans-serif" font-size="9" font-weight="500" fill="#94a3b8" letter-spacing="1.5">DAILY JOBS · LOCAL WORKERS</text>
</svg>